<svg width="106" height="28" viewBox="0 0 106 28" fill="none" xmlns="http://www.w3.org/2000/svg">
<path fill-rule="evenodd" clip-rule="evenodd" d="M5.57601 4.61119L3.40976 7.4326L3.73285 24.1169L5.22679 22.423L5.57601 4.61119ZM8.80307 18.3682L7.1545 20.2373L6.82051 2.9903L8.89565 0.287558C8.97072 0.189789 9.06122 0.107186 9.16237 0.0421165L8.80307 18.3682ZM12.2621 20.2147L10.6129 18.3385L10.2581 0.0122424C10.3788 0.0809391 10.4864 0.173597 10.5733 0.286559L12.6011 2.92113L12.2621 20.2147ZM15.6815 24.1049L14.1874 22.4051L13.8413 4.53243L16.01 7.35009L15.6815 24.1049ZM19.102 27.9962L17.763 26.4728L17.4284 9.19281L19.42 11.7804L19.102 27.9962ZM22.627 26.4763L21.2878 28L20.9736 11.7772L22.9661 9.18183L22.627 26.4763ZM26.2025 22.4086L24.7082 24.1087L24.3833 7.3358L26.5535 4.50908L26.2025 22.4086ZM29.7791 18.3397L28.1296 20.2163L27.7941 2.89309L29.7869 0.297358C29.8827 0.172514 30.0032 0.0718267 30.1387 0L29.7791 18.3397ZM33.2372 20.2587L31.59 18.3957L31.2347 0.0478727C31.3371 0.1142 31.4288 0.198135 31.505 0.297318L33.5757 2.9943L33.2372 20.2587ZM36.6566 24.1263L35.1635 22.4375L34.8183 4.61279L36.9839 7.43325L36.6566 24.1263ZM40.0775 27.9956L38.7386 26.4812L38.4056 9.28497L40.3936 11.8742L40.0775 27.9956ZM1.65155 26.4767L1.98864 9.28352L0 11.8736L0.312199 27.9953L1.65155 26.4767Z" fill="#2E3338"/>
<path d="M95.1165 22.0686V5.65393H97.5671V12.5435L97.2665 12.4972C97.4053 11.8037 97.6596 11.2411 98.0295 10.8095C98.3994 10.3626 98.8541 10.0312 99.3935 9.8154C99.933 9.59962 100.526 9.49173 101.174 9.49173C102.068 9.49173 102.823 9.6921 103.439 10.0928C104.056 10.4782 104.518 11.0253 104.827 11.7343C105.15 12.4433 105.312 13.2525 105.312 14.1618V22.0686H102.861V14.8092C102.861 13.6994 102.669 12.8826 102.283 12.3585C101.914 11.8191 101.328 11.5493 100.526 11.5493C99.6324 11.5493 98.9157 11.8345 98.3763 12.4048C97.8368 12.9596 97.5671 13.7765 97.5671 14.8554V22.0686H95.1165Z" fill="#2E3338"/>
<path d="M88.0718 22.346C86.9004 22.346 85.8755 22.084 84.9969 21.56C84.1184 21.0359 83.4402 20.2884 82.9624 19.3174C82.4846 18.3464 82.2457 17.2135 82.2457 15.9189C82.2457 14.6242 82.4846 13.499 82.9624 12.5434C83.4402 11.5724 84.1184 10.8249 84.9969 10.3009C85.8755 9.76142 86.9004 9.4917 88.0718 9.4917C89.0736 9.4917 89.9599 9.66895 90.7305 10.0234C91.5166 10.3625 92.1485 10.8634 92.6263 11.5262C93.1195 12.1889 93.4355 12.9981 93.5742 13.9537L91.0079 14.0924C90.8846 13.291 90.561 12.6822 90.0369 12.266C89.5129 11.8345 88.8578 11.6187 88.0718 11.6187C87.0391 11.6187 86.2299 12.004 85.6443 12.7746C85.074 13.5299 84.7888 14.5779 84.7888 15.9189C84.7888 17.2598 85.074 18.3156 85.6443 19.0862C86.2299 19.8414 87.0391 20.219 88.0718 20.219C88.8578 20.219 89.5129 20.0033 90.0369 19.5717C90.561 19.1247 90.8846 18.4543 91.0079 17.5603L93.5742 17.699C93.4355 18.6392 93.1195 19.4561 92.6263 20.1497C92.1485 20.8433 91.5166 21.3827 90.7305 21.768C89.9599 22.1534 89.0736 22.346 88.0718 22.346Z" fill="#2E3338"/>
<path d="M74.2327 22.346C72.9535 22.346 71.9285 22.0532 71.1579 21.4675C70.4026 20.8818 70.025 20.0572 70.025 18.9937C70.025 17.9302 70.341 17.1056 70.9729 16.52C71.6203 15.9189 72.6144 15.4873 73.9553 15.2253L78.1861 14.4161C78.1861 13.4605 77.9626 12.7515 77.5157 12.2891C77.0687 11.8113 76.4059 11.5724 75.5274 11.5724C74.7414 11.5724 74.1248 11.7497 73.6779 12.1042C73.2309 12.4433 72.9226 12.9519 72.7531 13.63L70.2331 13.4682C70.4643 12.2352 71.0346 11.2642 71.9439 10.5552C72.8687 9.84619 74.0632 9.4917 75.5274 9.4917C77.192 9.4917 78.4559 9.93867 79.319 10.8326C80.1975 11.7111 80.6368 12.9519 80.6368 14.5548V19.3405C80.6368 19.6334 80.683 19.8414 80.7755 19.9647C80.8834 20.0726 81.0529 20.1266 81.2841 20.1266H81.7234V22.0686C81.6463 22.084 81.523 22.0994 81.3535 22.1148C81.1839 22.1302 81.0067 22.1379 80.8217 22.1379C80.2977 22.1379 79.843 22.0532 79.4577 21.8836C79.0878 21.7141 78.8103 21.4367 78.6254 21.0513C78.4404 20.6506 78.348 20.1189 78.348 19.4561L78.6023 19.5717C78.479 20.1111 78.2092 20.5889 77.7931 21.0051C77.3924 21.4212 76.876 21.7526 76.2441 21.9992C75.6276 22.2304 74.9571 22.346 74.2327 22.346ZM74.6258 20.404C75.3656 20.404 75.9975 20.2653 76.5215 19.9878C77.0456 19.695 77.454 19.2943 77.7469 18.7856C78.0397 18.277 78.1861 17.699 78.1861 17.0517V16.2656L74.5795 16.9592C73.8397 17.0979 73.3157 17.3214 73.0074 17.6297C72.7146 17.9225 72.5681 18.3001 72.5681 18.7625C72.5681 19.2866 72.7454 19.695 73.0999 19.9878C73.4698 20.2653 73.9784 20.404 74.6258 20.404Z" fill="#2E3338"/>
<path d="M51.3936 22.0686V5.65393H54.8152L59.6934 19.1325L64.5715 5.65393H67.9932V22.0686H65.4963V10.0466L61.0805 22.0455H58.3062L53.8904 10.0466V22.0686H51.3936Z" fill="#5D6167"/>
</svg>
